{"glyphs":{":":{"x_min":0,"x_max":200,"ha":200,"o":"m 61 319 q 61 339 74 351 q 86 363 108 363 q 130 363 142 352 q 154 340 154 319 q 154 296 142 284 q 130 271 108 271 q 86 271 74 284 q 61 297 61 319 z m 24 38 q 24 58 36 70 q 49 82 71 82 q 93 82 105 70 q 117 59 117 38 q 117 15 105 2 q 93 -10 71 -10 q 49 -10 36 3 q 24 16 24 38 z"},"$":{"x_min":0,"x_max":460,"ha":460,"o":"m 455 595 l 441 478 q 441 474 436 474 q 430 474 430 478 q 422 537 396 576 q 371 614 324 618 l 279 365 l 302 348 q 360 307 390 272 q 420 237 420 186 q 420 168 418 158 q 405 90 352 43 q 299 -4 213 -11 l 196 -109 q 195 -114 186 -114 q 181 -114 177 -112 q 173 -109 174 -105 l 190 -12 l 186 -12 q 150 -12 117 -4 q 84 3 48 22 q 40 27 42 41 l 62 176 q 62 181 68 181 q 73 181 74 176 q 80 105 110 60 q 140 14 194 8 l 243 290 q 242 291 230 300 q 193 327 172 346 q 150 365 135 391 q 120 417 120 451 q 120 466 123 481 q 136 547 186 587 q 237 627 304 634 l 319 722 q 320 727 328 727 q 334 727 338 724 q 342 722 341 718 l 327 636 l 332 636 q 387 636 443 612 q 456 605 455 595 z m 259 380 l 301 619 q 249 614 222 574 q 195 534 195 490 q 195 457 212 431 q 228 405 259 380 z m 340 147 q 340 187 320 216 q 300 246 263 275 l 216 7 q 262 9 295 37 q 328 65 337 119 q 340 134 340 147 z"},"?":{"x_min":0,"x_max":295,"ha":295,"o":"m 117 285 q 117 326 134 351 q 152 376 188 406 q 221 433 240 456 q 258 480 265 517 q 267 533 267 541 q 267 571 253 590 q 239 609 213 609 q 190 609 180 598 q 171 586 165 565 q 161 544 152 530 q 143 516 121 516 q 105 516 96 525 q 88 534 88 548 q 88 555 89 558 q 93 588 132 606 q 172 625 221 625 q 274 625 306 600 q 338 576 338 531 q 338 519 335 505 q 329 474 314 450 q 298 427 282 412 q 267 398 235 372 q 193 338 175 311 q 157 284 151 248 q 149 239 149 218 q 149 200 150 191 q 150 187 144 186 q 138 185 137 189 q 128 210 122 236 q 117 262 117 285 z m 68 38 q 68 58 80 70 q 93 82 115 82 q 137 82 149 70 q 161 59 161 38 q 161 15 149 2 q 137 -10 115 -10 q 93 -10 80 3 q 68 16 68 38 z"},"<":{"x_min":0,"x_max":407,"ha":407,"o":"m 377 43 q 377 22 370 25 l 36 173 q 31 176 31 190 q 31 205 36 207 l 370 354 q 373 356 375 350 q 377 345 377 336 q 377 315 370 311 l 86 190 l 370 69 q 377 66 377 43 z"},"'":{"x_min":0,"x_max":132,"ha":132,"o":"m 103 609 q 104 620 134 630 q 165 640 184 640 q 194 640 192 637 l 81 303 q 80 300 74 300 q 68 299 68 301 z"},"=":{"x_min":0,"x_max":468,"ha":468,"o":"m 29 261 q 29 268 30 274 q 31 280 33 280 l 434 280 q 436 280 438 274 q 439 267 439 260 q 439 252 438 246 q 436 239 434 239 l 34 239 q 32 239 30 246 q 29 253 29 261 z m 29 121 q 29 128 30 134 q 31 140 33 140 l 434 140 q 436 140 438 134 q 439 127 439 120 q 439 112 438 106 q 436 99 434 99 l 34 99 q 32 99 30 106 q 29 113 29 121 z"},"a":{"x_min":0,"x_max":437,"ha":437,"o":"m 414 78 q 417 78 419 74 q 421 71 419 69 q 386 30 359 10 q 332 -9 307 -9 q 287 -9 278 3 q 268 15 268 41 q 268 57 273 89 l 289 184 q 246 93 190 40 q 134 -13 81 -13 q 51 -13 34 6 q 18 24 18 62 q 18 71 20 91 q 30 160 74 232 q 117 305 176 352 q 235 399 287 399 q 329 399 355 372 q 374 388 381 407 q 383 409 385 409 q 388 409 391 408 q 394 406 393 405 l 335 89 q 332 74 332 62 q 332 34 349 34 q 370 34 411 77 q 412 78 414 78 z m 304 269 q 307 283 307 296 q 307 325 292 342 q 277 359 249 359 q 215 359 181 332 q 147 304 122 256 q 97 208 88 148 q 84 116 84 106 q 84 44 126 44 q 160 44 198 79 q 235 114 264 167 q 294 220 304 269 z"},"L":{"x_min":0,"x_max":499,"ha":499,"o":"m 13 12 q 44 12 59 17 q 74 22 82 36 q 89 51 94 81 l 176 544 q 180 570 180 576 q 180 598 167 606 q 154 613 119 613 q 117 613 117 619 q 117 625 119 625 l 162 624 q 198 622 221 622 q 244 622 284 624 l 328 625 q 330 625 330 619 q 330 613 328 613 q 297 613 282 608 q 267 602 260 588 q 252 573 246 543 l 165 85 q 162 67 162 54 q 162 33 174 26 q 185 19 215 19 l 292 19 q 353 19 396 54 q 439 89 470 158 q 471 161 476 160 q 482 159 481 156 q 461 88 448 15 q 446 7 442 4 q 439 0 432 0 l 13 0 q 10 0 10 6 q 10 12 13 12 z"},"3":{"x_min":0,"x_max":392,"ha":392,"o":"m 245 334 q 296 330 324 296 q 351 262 351 210 q 351 188 347 171 q 334 89 278 38 q 221 -12 144 -12 q 58 -12 12 66 l 11 68 q 11 70 15 72 q 19 75 21 73 q 39 48 68 34 q 97 20 126 20 q 187 20 224 62 q 262 105 273 172 q 277 191 277 213 q 277 321 145 321 q 141 321 141 328 q 141 335 145 335 q 220 335 258 372 q 297 408 308 473 q 312 501 312 510 q 312 552 292 572 q 271 593 234 593 q 196 593 159 572 q 122 552 101 515 q 99 513 97 513 q 94 513 92 516 q 89 518 91 521 q 120 574 168 605 q 215 636 269 636 q 324 636 354 604 q 385 573 385 523 q 385 508 382 493 q 373 442 336 398 q 299 354 245 334 z"},";":{"x_min":0,"x_max":222,"ha":222,"o":"m 154 319 q 154 296 142 284 q 130 271 108 271 q 86 271 74 284 q 61 297 61 319 q 61 339 74 351 q 86 363 108 363 q 130 363 142 352 q 154 340 154 319 z m 133 15 q 133 1 130 -14 q 123 -52 94 -90 q 64 -127 19 -159 q 18 -160 16 -160 q 13 -160 11 -156 q 9 -152 12 -150 q 84 -93 94 -30 q 95 -24 95 -13 q 95 -3 93 1 q 86 -8 67 -8 q 45 -8 34 7 q 22 22 24 41 q 26 60 39 71 q 52 82 75 82 q 102 82 118 64 q 133 46 133 15 z"},"J":{"x_min":0,"x_max":292,"ha":292,"o":"m -23 -193 q -26 -193 -28 -188 q -30 -184 -27 -182 q 18 -155 44 -101 q 70 -47 86 40 l 175 544 q 178 562 178 575 q 178 598 165 606 q 152 613 117 613 q 115 613 115 619 q 115 625 117 625 l 160 624 q 198 622 221 622 q 249 622 287 624 l 328 625 q 331 625 331 619 q 331 613 328 613 q 297 613 282 607 q 267 601 260 586 q 252 572 247 542 l 163 67 q 148 -11 126 -60 q 104 -108 70 -138 q 35 -169 -22 -193 z"},"V":{"x_min":0,"x_max":595,"ha":595,"o":"m 664 613 q 633 613 608 596 q 583 578 556 527 l 284 1 q 281 -3 272 -3 q 261 -3 260 1 l 139 542 q 130 582 116 598 q 103 613 77 613 q 75 613 75 619 q 75 625 77 625 l 118 624 q 146 622 160 622 q 190 622 228 624 l 268 625 q 271 625 271 619 q 271 613 268 613 q 239 613 224 604 q 209 595 209 572 q 209 564 212 552 l 313 104 l 533 531 q 546 556 546 574 q 546 613 483 613 q 480 613 480 619 q 480 625 483 625 l 522 624 q 554 622 583 622 q 599 622 625 624 l 664 625 q 668 625 668 619 q 668 613 664 613 z"},"\"":{"x_min":0,"x_max":325,"ha":325,"o":"m 121 609 q 122 620 152 630 q 183 640 202 640 q 212 640 210 637 l 99 303 q 98 300 92 300 q 86 299 86 301 z m 272 609 q 273 620 304 630 q 334 640 353 640 q 363 640 361 637 l 250 303 q 249 300 243 300 q 237 299 237 301 z"},"7":{"x_min":0,"x_max":396,"ha":396,"o":"m 48 8 q 48 13 52 18 l 380 558 q 385 565 378 565 q 243 565 192 561 q 141 557 122 544 q 103 532 89 497 q 88 493 82 495 q 77 497 79 500 l 137 653 q 137 654 141 654 q 149 654 148 650 q 145 643 145 637 q 145 630 154 628 q 163 625 186 625 l 424 625 q 428 625 430 620 q 432 615 430 612 l 131 13 q 127 6 124 3 q 120 0 113 0 l 58 0 q 48 0 48 8 z"},"S":{"x_min":0,"x_max":465,"ha":465,"o":"m 48 22 q 40 27 42 41 l 62 176 q 62 181 68 181 q 73 181 74 176 q 81 99 115 53 q 149 7 211 7 q 258 7 293 35 q 328 63 337 119 q 340 134 340 147 q 340 195 312 228 q 283 262 230 300 q 193 327 172 346 q 150 365 135 391 q 120 417 120 451 q 120 466 123 481 q 137 555 198 596 q 258 636 332 636 q 387 636 443 612 q 456 605 455 595 l 441 478 q 441 474 436 474 q 430 474 430 478 q 422 541 394 580 q 366 619 312 619 q 272 619 246 598 q 220 578 208 548 q 195 518 195 489 q 195 458 210 434 q 224 410 244 392 q 264 375 302 348 q 360 307 390 272 q 420 237 420 186 q 420 168 418 158 q 405 84 344 36 q 283 -12 186 -12 q 150 -12 117 -4 q 84 3 48 22 z"},"}":{"x_min":0,"x_max":262,"ha":262,"o":"m 237 641 q 237 606 224 528 q 208 437 208 400 q 208 361 221 339 q 234 317 262 310 q 265 310 265 304 q 265 297 262 297 q 213 290 188 238 q 163 187 144 79 q 129 -7 111 -48 q 93 -88 64 -102 q 34 -117 -21 -117 q -24 -117 -24 -111 q -24 -105 -21 -105 q 44 -105 63 1 q 86 120 102 171 q 117 222 143 250 q 169 279 223 303 q 179 323 162 347 q 144 371 144 414 q 144 439 150 483 q 156 527 165 578 l 170 607 q 173 627 173 643 q 173 677 160 695 q 148 713 125 713 q 123 713 123 719 q 123 725 125 725 q 168 725 192 718 q 215 711 226 693 q 237 675 237 641 z"},"Z":{"x_min":0,"x_max":550,"ha":550,"o":"m 17 0 q 13 0 12 4 q 11 9 13 13 l 480 600 q 485 605 484 606 q 484 608 478 608 q 335 608 273 600 q 211 592 180 568 q 149 545 115 485 q 113 481 108 482 q 103 484 105 488 l 172 655 q 173 656 176 656 q 179 656 182 654 q 185 653 184 651 q 182 646 182 639 q 182 630 192 628 q 201 625 229 625 l 569 625 q 573 625 574 620 q 576 615 574 612 l 112 27 q 108 22 108 20 q 109 19 114 19 l 290 19 q 370 19 417 46 q 464 74 498 142 q 500 145 503 145 q 506 145 508 144 q 511 142 510 140 l 473 8 q 473 5 470 2 q 468 -2 464 -2 q 327 0 17 0 z"},"x":{"x_min":0,"x_max":424,"ha":424,"o":"m 419 346 q 419 332 410 322 q 400 313 385 313 q 369 313 356 326 q 344 336 334 336 q 315 336 296 309 l 238 223 l 279 87 q 288 57 300 48 q 311 38 326 38 q 353 38 387 75 q 388 76 390 76 q 394 76 396 72 q 398 69 396 66 q 359 27 332 8 q 306 -10 283 -10 q 260 -10 246 4 q 232 18 220 55 l 189 154 l 132 63 q 103 17 88 4 q 73 -10 51 -10 q 29 -10 12 7 q -6 24 -4 45 q -2 57 8 64 q 17 72 30 72 q 40 72 46 69 q 52 66 59 60 q 64 56 70 53 q 75 50 82 50 q 101 50 119 76 l 184 173 l 147 292 q 138 326 126 337 q 113 348 98 348 q 73 348 36 311 q 35 310 33 310 q 30 310 28 314 q 25 317 28 319 q 64 358 91 376 q 118 395 141 395 q 164 395 180 380 q 195 365 207 325 l 232 242 l 284 323 q 312 368 327 382 q 342 395 364 395 q 385 395 402 380 q 419 366 419 346 z"},")":{"x_min":0,"x_max":283,"ha":283,"o":"m 256 428 q 256 363 245 304 q 220 163 149 50 q 78 -63 -22 -117 l -23 -117 q -26 -117 -28 -114 q -31 -110 -28 -109 q 47 -38 94 64 q 142 165 166 304 q 181 390 181 464 q 181 611 119 717 l 119 718 q 119 721 122 724 q 124 726 126 725 q 191 684 224 607 q 256 530 256 428 z"},"&":{"x_min":0,"x_max":755,"ha":755,"o":"m 761 352 q 761 326 746 300 q 731 275 706 259 q 682 243 654 243 q 624 243 584 263 q 565 129 492 58 q 418 -12 311 -12 q 241 -12 186 20 q 132 53 102 107 q 71 161 71 225 q 71 251 77 278 q 89 332 123 374 q 157 417 204 441 q 251 465 300 465 q 350 465 382 440 q 439 504 439 551 q 439 570 432 580 q 426 590 414 599 q 404 607 399 614 q 394 622 394 635 q 394 652 404 662 q 415 673 432 673 q 456 673 470 652 q 485 631 485 597 q 485 540 445 482 q 405 425 348 376 q 291 326 201 257 l 144 213 q 153 159 182 118 q 212 77 254 55 q 297 33 345 33 q 431 33 492 96 q 552 158 566 272 l 538 286 q 501 305 476 315 q 452 325 431 325 q 416 325 408 319 q 399 313 399 304 q 399 292 409 276 q 413 269 416 262 q 419 256 419 250 q 419 239 412 231 q 405 223 391 223 q 378 223 370 232 q 362 240 362 258 q 362 285 380 310 q 397 335 426 351 q 454 367 483 367 q 508 367 534 357 q 560 347 601 326 q 639 307 660 298 q 680 290 699 290 q 711 290 720 296 q 728 301 728 309 q 728 318 717 331 q 703 347 703 361 q 703 373 710 380 q 718 386 732 386 q 746 386 754 378 q 761 371 761 352 z m 140 260 q 140 250 142 232 l 194 274 q 277 340 324 382 q 300 437 248 437 q 211 437 184 400 q 156 364 145 310 q 140 282 140 260 z"},"_":{"x_min":0,"x_max":363,"ha":363,"o":"m -12 -55 q -12 -48 -11 -42 q -10 -35 -8 -35 l 311 -35 q 313 -35 314 -42 q 316 -48 316 -56 q 316 -64 314 -70 q 313 -77 311 -77 l -7 -77 q -9 -77 -10 -70 q -12 -63 -12 -55 z"},"v":{"x_min":0,"x_max":437,"ha":437,"o":"m 91 102 q 91 135 105 171 q 119 207 145 259 l 166 301 q 171 313 171 318 q 171 327 158 327 l 108 327 q 71 327 57 318 q 43 308 33 278 q 32 275 27 275 q 24 275 22 277 q 21 279 22 282 q 38 328 49 349 q 60 370 76 378 q 93 387 123 387 l 213 387 q 224 387 224 383 q 224 381 221 375 q 163 242 153 167 q 151 156 151 137 q 151 94 170 70 q 189 45 222 45 q 266 45 306 88 q 347 130 362 196 q 368 223 368 242 q 368 269 360 284 q 352 299 337 315 q 335 317 328 324 q 321 332 317 340 q 313 348 313 357 q 313 376 326 386 q 339 396 357 396 q 382 396 394 372 q 405 347 405 304 q 405 280 402 253 q 392 178 357 117 q 322 56 276 22 q 229 -13 186 -13 q 143 -13 117 21 q 91 55 91 102 z"},"O":{"x_min":0,"x_max":652,"ha":652,"o":"m 60 240 q 60 276 66 313 q 82 406 132 480 q 183 553 256 594 q 328 636 410 636 q 481 636 532 604 q 584 571 611 514 q 638 458 638 386 q 638 348 631 313 q 614 218 562 144 q 509 69 436 28 q 362 -12 283 -12 q 213 -12 162 20 q 112 53 86 110 q 60 167 60 240 z m 549 260 q 559 309 559 358 q 559 431 536 488 q 514 546 471 579 q 428 612 370 612 q 287 612 228 546 q 168 480 147 366 q 138 318 138 273 q 138 200 160 141 q 182 82 224 48 q 267 14 326 14 q 408 14 468 79 q 527 144 549 260 z"},"(":{"x_min":0,"x_max":283,"ha":283,"o":"m 67 180 q 67 245 78 304 q 103 445 174 558 q 245 671 345 725 l 346 725 q 349 725 352 722 q 354 718 351 717 q 276 646 228 544 q 181 443 157 304 q 142 219 142 144 q 142 -3 204 -109 l 204 -110 q 204 -113 202 -116 q 199 -118 197 -117 q 132 -76 100 1 q 67 78 67 180 z"},"C":{"x_min":0,"x_max":586,"ha":586,"o":"m 57 244 q 57 274 64 316 q 81 411 138 484 q 194 557 273 596 q 352 636 434 636 q 475 636 516 627 q 558 618 581 603 q 587 599 588 594 q 590 590 589 579 l 577 461 q 576 457 571 457 q 566 457 566 461 q 556 537 512 574 q 467 612 396 612 q 334 612 282 580 q 230 547 196 487 q 161 427 149 346 q 142 305 142 262 q 142 188 164 129 q 186 70 228 36 q 269 3 324 3 q 379 3 432 40 q 486 78 534 154 q 536 156 538 156 q 541 156 543 154 q 545 152 544 150 l 515 40 q 512 28 509 24 q 506 19 497 17 q 410 -13 318 -13 q 183 -13 120 60 q 57 134 57 244 z"},"W":{"x_min":0,"x_max":837,"ha":837,"o":"m 910 613 q 877 613 846 590 q 815 567 794 520 l 567 0 q 566 -4 557 -4 q 549 -4 548 0 l 464 500 l 237 0 q 237 -4 228 -4 q 219 -4 218 0 l 144 543 q 137 584 124 598 q 110 613 82 613 q 80 613 80 619 q 80 625 82 625 l 111 624 q 135 622 154 622 q 196 622 236 624 q 249 625 269 625 q 271 625 271 619 q 271 613 269 613 q 239 613 228 604 q 216 596 216 571 q 216 558 219 538 l 275 136 l 497 625 q 499 628 507 628 q 516 628 516 625 l 601 132 l 771 523 q 786 560 786 577 q 786 613 733 613 q 731 613 731 619 q 731 625 733 625 l 773 624 q 805 622 829 622 q 847 622 871 624 l 910 625 q 912 625 912 619 q 912 613 910 613 z"},"A":{"x_min":0,"x_max":602,"ha":602,"o":"m 566 0 q 551 0 519 2 q 483 4 462 4 q 440 4 408 2 q 376 0 362 0 q 359 0 359 6 q 359 12 362 12 q 397 12 411 21 q 425 30 425 54 q 425 68 422 84 l 382 319 l 232 319 l 129 131 q 100 79 100 51 q 100 29 117 20 q 134 12 169 12 q 173 12 172 6 q 172 0 168 0 q 156 0 120 2 q 80 4 58 4 q 37 4 9 2 q -19 0 -34 0 q -38 0 -38 6 q -38 12 -34 12 q -5 12 30 40 q 64 67 98 127 l 382 635 q 384 638 389 638 q 398 638 400 633 l 495 84 q 500 53 506 39 q 511 25 524 18 q 538 12 566 12 q 570 12 570 6 q 570 0 566 0 z m 245 342 l 378 342 l 346 527 z"},"f":{"x_min":0,"x_max":264,"ha":264,"o":"m 398 672 q 395 656 384 648 q 373 639 359 639 q 340 639 332 648 q 325 658 319 677 q 313 694 308 702 q 302 709 289 709 q 253 709 226 642 q 200 575 180 439 l 171 377 q 201 378 238 382 l 271 384 q 278 384 278 376 q 278 368 267 354 q 256 341 246 341 q 240 341 233 342 q 226 343 218 344 q 201 347 167 351 l 113 -21 q 99 -118 80 -172 q 61 -227 33 -251 q 5 -275 -38 -275 q -75 -275 -94 -261 q -113 -247 -110 -227 q -109 -212 -98 -203 q -86 -194 -70 -194 q -52 -194 -45 -203 q -38 -212 -33 -230 q -29 -244 -25 -250 q -21 -256 -11 -256 q 1 -256 8 -240 q 16 -225 25 -182 q 34 -138 47 -47 l 98 306 q 100 326 100 332 q 100 350 89 355 q 78 360 44 360 q 41 360 41 365 q 41 368 42 371 q 44 374 45 374 q 80 374 95 384 q 110 393 114 418 q 134 541 159 606 q 184 672 222 699 q 259 726 321 726 q 359 726 380 710 q 401 695 398 672 z"},"Q":{"x_min":0,"x_max":652,"ha":652,"o":"m 690 -184 q 643 -197 610 -197 q 546 -197 480 -146 q 414 -94 367 0 q 327 -12 283 -12 q 213 -12 162 20 q 112 53 86 110 q 60 167 60 240 q 60 276 66 313 q 82 406 132 480 q 183 553 256 594 q 328 636 410 636 q 481 636 532 604 q 584 571 611 514 q 638 458 638 386 q 638 348 631 313 q 614 219 564 146 q 513 73 441 31 q 465 -28 502 -76 q 539 -123 580 -150 q 620 -177 652 -177 q 674 -177 686 -173 q 689 -172 690 -178 q 692 -183 690 -184 z m 138 273 q 138 200 160 141 q 182 82 224 48 q 267 14 326 14 q 408 14 468 79 q 527 144 549 260 q 559 309 559 358 q 559 431 536 488 q 514 546 471 579 q 428 612 370 612 q 287 612 228 546 q 168 480 147 366 q 138 318 138 273 z"},"w":{"x_min":0,"x_max":621,"ha":621,"o":"m 589 306 q 589 291 585 253 q 576 178 544 117 q 513 56 470 22 q 428 -13 389 -13 q 362 -13 341 4 q 320 22 307 54 q 279 22 247 4 q 215 -13 186 -13 q 143 -13 119 18 q 95 49 95 98 q 95 114 98 130 q 104 167 122 208 q 139 248 166 301 q 171 311 171 318 q 171 327 158 327 l 108 327 q 71 327 57 318 q 43 308 33 278 q 32 275 27 275 q 24 275 22 277 q 21 279 22 282 q 38 328 49 349 q 60 370 76 378 q 93 387 123 387 l 213 387 q 224 387 224 383 q 224 381 221 375 q 197 320 179 264 q 161 208 155 167 q 153 145 153 137 q 153 93 172 68 q 190 43 222 43 q 260 43 297 82 q 288 120 288 164 q 288 205 295 243 q 306 312 328 352 q 349 392 376 392 q 394 392 404 375 q 414 358 414 328 q 414 317 410 287 q 393 181 340 98 q 372 43 424 43 q 449 43 474 62 q 500 81 520 116 q 540 151 547 196 q 550 217 550 233 q 550 263 542 282 q 534 300 518 318 q 507 330 502 338 q 497 346 497 357 q 497 377 510 386 q 523 396 542 396 q 566 396 578 372 q 589 348 589 306 z m 313 212 q 313 161 329 122 q 368 181 378 253 q 380 271 380 278 q 380 299 373 310 q 366 321 353 321 q 339 321 330 304 q 321 288 317 261 q 313 240 313 212 z"},"-":{"x_min":0,"x_max":305,"ha":305,"o":"m 28 195 q 28 212 30 213 l 279 259 q 281 260 282 251 q 284 242 284 232 q 284 213 281 213 l 33 166 q 28 165 28 195 z"},"E":{"x_min":0,"x_max":520,"ha":520,"o":"m 516 616 l 508 562 l 496 489 q 496 486 491 486 q 489 486 486 488 q 484 489 484 490 q 488 543 463 576 q 438 608 392 608 l 330 608 q 299 608 284 603 q 270 598 263 585 q 256 572 251 543 l 215 337 l 347 337 q 388 337 409 353 q 430 369 437 409 q 437 412 443 412 q 445 412 448 410 q 450 409 449 407 q 446 385 440 361 q 436 346 433 325 l 428 294 q 425 263 418 229 q 417 225 411 226 q 405 226 406 230 q 409 245 409 257 q 409 287 392 300 q 375 314 340 314 l 211 314 l 170 85 q 167 67 167 55 q 167 34 180 26 q 192 19 226 19 l 309 19 q 353 19 395 56 q 437 92 463 152 q 465 155 470 154 q 476 153 474 150 q 456 92 442 15 q 440 6 437 3 q 434 0 426 0 l 17 0 q 15 0 15 6 q 15 12 17 12 q 48 12 63 17 q 78 22 86 36 q 93 50 99 81 l 180 544 q 184 561 184 577 q 184 598 171 606 q 158 613 124 613 q 121 613 121 619 q 121 625 124 625 l 510 625 q 518 625 516 616 z"},"s":{"x_min":0,"x_max":306,"ha":306,"o":"m 8 48 q 8 66 18 76 q 29 86 44 86 q 55 86 62 80 q 69 73 79 57 q 90 37 103 26 q 116 15 139 15 q 187 15 194 69 q 195 73 195 82 q 195 111 178 132 q 162 153 128 181 q 95 208 78 229 q 61 250 61 279 q 61 311 80 338 q 100 365 132 380 q 165 396 201 396 q 240 396 265 381 q 290 366 287 343 q 284 328 274 320 q 264 311 252 311 q 237 311 229 318 q 221 325 212 339 q 202 355 192 364 q 181 372 162 372 q 143 372 130 362 q 118 352 116 335 q 115 331 115 322 q 115 295 132 274 q 148 253 180 226 q 215 196 232 174 q 250 151 250 121 q 250 91 230 60 q 211 29 178 9 q 144 -11 103 -11 q 65 -11 36 6 q 8 24 8 48 z"},">":{"x_min":0,"x_max":407,"ha":407,"o":"m 376 189 q 376 175 371 172 l 37 25 q 34 24 32 30 q 30 35 30 43 q 30 51 32 59 q 34 67 37 68 l 321 189 l 37 310 q 34 312 32 320 q 30 328 30 336 q 30 345 32 350 q 34 356 37 354 l 371 206 q 376 204 376 189 z"},"l":{"x_min":0,"x_max":240,"ha":240,"o":"m 52 40 q 52 59 58 89 l 154 610 q 157 625 157 635 q 157 661 137 661 q 121 661 91 646 l 90 646 q 85 646 84 652 q 82 657 86 658 l 224 725 l 226 725 q 230 725 233 722 q 236 719 235 717 l 120 89 q 117 74 117 63 q 117 34 135 34 q 145 34 160 45 q 175 56 197 77 q 199 79 201 79 q 204 79 206 76 q 208 72 205 69 q 171 29 144 10 q 118 -9 92 -9 q 72 -9 62 3 q 52 15 52 40 z"},"8":{"x_min":0,"x_max":446,"ha":446,"o":"m 313 354 q 362 309 388 274 q 413 239 413 191 q 413 178 410 161 q 401 111 368 72 q 336 32 288 10 q 241 -13 188 -13 q 118 -13 74 26 q 31 66 31 126 q 31 196 85 260 q 139 325 208 360 q 176 391 160 419 q 143 447 143 483 q 143 491 145 509 q 157 576 208 606 q 259 636 317 636 q 369 636 400 609 q 431 582 431 535 q 431 486 399 439 q 367 392 313 354 z m 362 538 q 362 578 346 598 q 329 618 300 618 q 263 618 240 598 q 218 579 211 537 q 209 523 209 516 q 209 473 232 439 q 256 405 300 366 q 345 418 358 495 q 362 516 362 538 z m 340 161 q 340 213 314 250 q 288 287 237 333 l 218 350 q 176 322 148 278 q 121 235 112 180 q 108 152 108 139 q 108 81 136 43 q 164 5 211 5 q 256 5 292 40 q 329 76 338 131 q 340 141 340 161 z"},"\\":{"x_min":0,"x_max":305,"ha":305,"o":"m 113 723 q 112 727 120 730 q 128 733 138 733 q 149 733 151 728 l 223 -159 q 224 -163 216 -166 q 207 -168 198 -168 q 185 -168 185 -163 z"},"e":{"x_min":0,"x_max":347,"ha":347,"o":"m 336 353 q 336 306 268 268 q 199 229 102 212 q 98 188 98 160 q 98 99 124 62 q 151 25 202 25 q 257 25 299 58 l 300 58 q 303 58 306 55 q 308 52 306 49 q 235 -12 157 -12 q 91 -12 58 29 q 25 70 25 135 q 25 157 30 185 q 40 237 74 286 q 107 336 157 368 q 207 399 263 399 q 298 399 317 386 q 336 374 336 353 z m 259 337 q 259 354 246 363 q 234 372 216 372 q 175 372 146 332 q 117 291 104 226 q 242 252 257 324 q 259 334 259 337 z"},"b":{"x_min":0,"x_max":440,"ha":440,"o":"m 423 293 q 423 271 419 251 q 403 170 358 110 q 312 50 255 18 q 198 -13 149 -13 q 102 -13 74 8 q 46 28 46 62 q 46 68 48 80 l 147 610 q 149 619 149 633 q 149 661 128 661 q 112 661 81 646 l 80 646 q 76 646 74 652 q 73 657 77 658 l 214 725 l 216 725 q 220 725 224 722 q 227 719 226 717 l 137 222 q 171 301 226 350 q 282 399 341 399 q 379 399 401 370 q 423 341 423 293 z m 349 272 q 349 307 336 327 q 322 347 294 347 q 254 347 218 316 q 182 284 154 227 q 127 170 114 96 q 113 91 113 82 q 113 51 134 32 q 155 13 189 13 q 221 13 252 38 q 284 63 308 110 q 332 157 343 220 q 349 247 349 272 z"},"%":{"x_min":0,"x_max":522,"ha":522,"o":"m 69 404 q 69 444 88 480 q 106 516 137 538 q 168 560 203 560 q 243 560 266 532 q 289 504 289 460 q 289 445 286 430 q 276 376 240 340 q 203 303 157 303 q 117 303 93 331 q 69 359 69 404 z m 64 -8 q 59 -8 50 -2 q 40 5 42 7 l 472 551 q 472 552 474 552 q 479 552 488 544 q 496 537 494 535 l 65 -8 z m 226 423 q 231 458 231 477 q 231 510 222 528 q 212 545 195 545 q 167 545 152 516 q 138 487 130 436 q 126 412 126 385 q 126 317 165 317 q 192 317 205 344 q 218 371 226 423 z m 263 96 q 263 136 282 172 q 300 208 331 230 q 362 252 397 252 q 437 252 460 224 q 483 197 483 153 q 483 138 480 123 q 470 68 434 32 q 398 -5 352 -5 q 312 -5 288 23 q 263 51 263 96 z m 421 116 q 426 149 426 170 q 426 237 389 237 q 362 237 348 208 q 333 179 325 128 q 320 98 320 77 q 320 46 330 28 q 340 10 360 10 q 387 10 400 37 q 413 64 421 116 z"},"m":{"x_min":0,"x_max":679,"ha":679,"o":"m 657 79 q 660 79 662 76 q 664 72 661 69 q 627 29 600 10 q 574 -9 548 -9 q 528 -9 519 2 q 510 14 510 39 q 510 56 515 89 l 544 248 q 549 281 549 300 q 549 354 514 354 q 485 354 454 316 q 422 279 393 206 q 364 132 345 31 l 341 9 q 340 1 330 -4 q 320 -8 302 -8 q 276 -8 276 -1 q 277 5 282 30 q 288 55 291 74 l 324 249 q 328 273 328 297 q 328 354 293 354 q 264 354 232 314 q 199 274 170 198 q 141 122 123 20 l 121 9 q 116 -8 81 -8 q 55 -8 55 -1 l 60 22 l 70 71 l 111 297 q 114 312 114 322 q 114 353 95 353 q 71 353 29 309 q 28 308 26 308 q 23 308 21 312 q 19 315 21 317 q 55 357 84 376 q 113 395 140 395 q 160 395 169 384 q 178 372 178 347 q 178 332 173 302 l 155 198 q 189 293 236 346 q 282 399 332 399 q 394 399 394 322 q 394 300 388 268 l 375 197 q 410 293 456 346 q 503 399 553 399 q 614 399 614 323 q 614 299 608 267 l 576 89 q 573 74 573 63 q 573 34 591 34 q 601 34 616 45 q 631 56 653 77 q 655 79 657 79 z"},"#":{"x_min":0,"x_max":438,"ha":438,"o":"m 418 298 q 418 274 414 274 l 339 274 l 286 117 l 348 117 q 351 117 351 99 q 351 75 347 75 l 272 75 l 219 -82 q 219 -84 214 -84 q 207 -84 196 -80 q 186 -76 187 -73 l 236 75 l 121 75 l 68 -82 q 68 -84 63 -84 q 56 -84 46 -80 q 35 -76 36 -73 l 85 75 l 25 75 q 22 75 22 96 q 22 117 25 117 l 99 117 l 152 274 l 92 274 q 90 274 89 280 q 88 287 88 295 q 88 302 90 308 q 91 315 92 315 l 166 315 l 222 484 q 223 489 239 482 q 255 476 254 472 l 201 315 l 317 315 l 373 484 q 374 489 390 482 q 406 476 405 472 l 352 315 l 415 315 q 418 315 418 298 z m 250 117 l 303 274 l 188 274 l 135 117 z"},",":{"x_min":0,"x_max":227,"ha":227,"o":"m 133 15 q 133 1 130 -14 q 123 -52 94 -90 q 64 -127 19 -159 q 18 -160 16 -160 q 13 -160 11 -156 q 9 -152 12 -150 q 84 -93 94 -30 q 95 -24 95 -13 q 95 -3 93 1 q 86 -8 67 -8 q 45 -8 34 7 q 22 22 24 41 q 26 60 39 71 q 52 82 75 82 q 102 82 118 64 q 133 46 133 15 z"},"n":{"x_min":0,"x_max":468,"ha":468,"o":"m 446 79 q 449 79 451 76 q 453 72 451 69 q 417 29 390 10 q 363 -9 337 -9 q 317 -9 308 2 q 299 14 299 40 q 299 57 304 89 l 333 248 q 339 278 339 300 q 339 354 300 354 q 268 354 234 313 q 200 272 170 194 q 140 116 121 9 q 119 1 109 -4 q 99 -8 82 -8 q 55 -8 55 -1 l 59 19 q 68 62 70 74 l 111 297 q 114 312 114 322 q 114 353 95 353 q 71 353 29 309 q 28 308 26 308 q 23 308 21 312 q 19 315 21 317 q 55 357 84 376 q 113 395 140 395 q 160 395 169 384 q 178 372 178 347 q 178 332 173 302 l 153 192 q 189 290 237 344 q 285 399 338 399 q 371 399 388 380 q 404 361 404 322 q 404 299 398 267 l 365 89 q 362 74 362 64 q 362 34 381 34 q 391 34 406 45 q 421 56 443 77 q 445 79 446 79 z"},"h":{"x_min":0,"x_max":448,"ha":448,"o":"m 426 79 q 429 79 432 76 q 434 72 431 69 q 397 29 370 10 q 343 -9 317 -9 q 297 -9 288 2 q 279 14 279 40 q 279 57 284 89 l 313 248 q 319 278 319 300 q 319 354 280 354 q 248 354 214 313 q 180 272 150 194 q 120 116 101 9 q 99 1 89 -4 q 79 -8 62 -8 q 35 -8 35 -1 l 39 19 q 48 62 50 74 l 150 610 q 152 619 152 633 q 152 661 131 661 q 115 661 85 646 l 84 646 q 80 646 78 651 q 76 656 80 658 l 218 725 l 220 725 q 224 725 227 722 q 230 719 229 717 l 134 194 q 170 291 218 345 q 265 399 318 399 q 351 399 367 380 q 383 362 383 322 q 383 293 378 267 l 345 89 q 342 74 342 64 q 342 34 361 34 q 371 34 386 45 q 401 56 423 77 q 425 79 426 79 z"},"z":{"x_min":0,"x_max":344,"ha":344,"o":"m 348 397 q 351 397 354 393 q 358 389 356 387 l 83 78 q 95 80 103 80 q 128 80 199 67 q 257 57 272 57 q 288 57 298 67 q 308 77 317 101 q 318 102 321 102 q 324 102 326 100 q 329 99 328 97 q 314 50 304 30 q 294 9 284 2 q 273 -5 254 -5 q 230 -5 198 0 q 165 6 155 8 q 93 21 56 22 q 40 22 28 16 q 16 10 1 -7 l 0 -7 q -3 -7 -7 -3 q -11 1 -9 3 l 265 311 q 253 309 245 309 q 224 309 163 322 q 117 333 99 333 q 82 333 72 322 q 61 312 51 288 q 50 285 46 285 q 43 285 41 288 q 39 290 40 293 q 57 342 67 362 q 77 383 89 389 q 101 395 125 394 q 146 393 202 381 q 261 369 291 367 q 307 367 319 373 q 331 379 346 396 z"},"B":{"x_min":0,"x_max":534,"ha":534,"o":"m 492 209 q 492 195 489 178 q 479 128 444 86 q 410 45 360 20 q 309 -4 252 -4 q 224 -4 189 -1 q 176 0 158 1 q 141 2 121 2 l 57 1 q 41 0 12 0 q 9 0 10 6 q 10 12 12 12 q 57 12 74 26 q 92 40 100 83 l 182 546 q 185 564 185 575 q 185 598 172 606 q 158 613 121 613 q 118 613 118 619 q 119 625 121 625 l 168 624 q 206 622 228 622 q 245 622 260 623 q 274 624 285 625 q 314 628 338 628 q 414 628 453 600 q 492 571 492 521 q 492 507 489 492 q 478 444 442 408 q 406 372 347 351 q 415 344 454 306 q 492 267 492 209 z m 219 352 l 257 351 q 324 351 365 390 q 406 430 418 493 q 422 509 422 527 q 422 567 396 590 q 371 612 319 612 q 287 612 273 598 q 259 584 252 539 z m 413 205 q 413 263 379 295 q 345 327 277 328 q 252 329 214 326 l 170 79 q 167 66 167 55 q 167 33 182 24 q 198 15 239 15 q 312 15 354 54 q 396 94 409 164 q 413 184 413 205 z"},"K":{"x_min":0,"x_max":604,"ha":604,"o":"m 631 613 q 594 613 548 592 q 503 572 460 532 l 300 389 l 397 207 q 448 113 474 74 q 500 34 518 23 q 535 12 562 12 q 565 12 565 6 q 565 0 562 0 l 474 0 q 433 0 422 5 q 412 10 386 65 q 360 120 343 152 l 243 338 l 203 303 l 164 81 q 159 51 159 40 q 159 23 170 18 q 182 12 215 12 q 217 12 217 6 q 217 0 215 0 q 188 0 174 1 l 114 2 l 54 1 q 39 0 12 0 q 9 0 9 6 q 9 12 12 12 q 43 12 58 17 q 73 22 81 36 q 89 51 94 81 l 176 544 q 180 570 180 576 q 180 598 167 606 q 154 613 119 613 q 117 613 117 619 q 117 625 119 625 l 162 624 q 198 622 221 622 q 244 622 284 624 l 328 625 q 330 625 330 619 q 330 613 328 613 q 298 613 282 607 q 267 601 260 586 q 252 572 246 542 l 208 327 l 438 538 q 473 570 473 591 q 473 613 429 613 q 427 613 427 619 q 427 625 429 625 l 470 624 q 510 622 540 622 q 568 622 600 624 l 631 625 q 634 625 634 619 q 634 613 631 613 z"},"R":{"x_min":0,"x_max":620,"ha":620,"o":"m 595 0 l 474 0 q 450 0 405 84 q 360 169 305 325 q 273 317 244 317 q 233 317 219 319 l 176 81 q 172 62 172 48 q 172 27 186 20 q 199 12 235 12 q 239 12 239 6 q 239 0 236 0 q 207 0 190 1 l 127 2 l 63 1 q 46 0 16 0 q 12 0 12 6 q 12 12 16 12 q 49 12 66 18 q 83 23 92 37 q 100 51 106 81 l 187 544 q 191 561 191 577 q 191 598 178 606 q 164 613 127 613 q 123 613 123 619 q 123 625 127 625 l 173 624 q 211 622 235 622 q 252 622 266 623 q 281 624 292 625 q 320 628 342 628 q 412 628 449 602 q 486 577 486 531 q 486 477 452 428 q 417 379 362 349 q 415 220 454 148 q 492 76 526 44 q 559 12 595 12 q 599 12 599 6 q 599 0 595 0 z m 264 341 q 327 341 360 371 q 392 401 403 469 q 407 492 407 516 q 407 565 385 588 q 363 611 325 611 q 300 611 289 608 q 278 604 271 590 q 264 576 258 542 l 223 345 q 249 341 264 341 z"},"T":{"x_min":0,"x_max":553,"ha":553,"o":"m 133 12 q 168 12 185 17 q 202 22 210 36 q 219 51 225 81 l 306 544 q 309 562 309 574 q 309 593 299 600 q 289 606 262 606 l 241 606 q 186 606 146 568 q 107 531 87 458 q 87 456 83 456 q 80 456 77 458 q 74 459 75 460 q 84 487 99 550 q 114 614 120 647 q 121 650 127 650 q 133 649 132 646 q 129 625 171 625 q 245 622 354 622 q 405 622 467 624 l 530 625 q 560 625 575 630 q 590 635 596 650 q 598 653 603 652 q 608 652 607 648 q 599 619 584 552 q 570 485 566 460 q 565 457 560 458 q 554 458 555 462 q 559 483 559 507 q 559 606 460 606 l 441 606 q 407 606 395 594 q 383 581 377 542 l 296 81 q 292 55 292 49 q 292 27 308 20 q 323 12 365 12 q 367 12 367 6 q 367 0 365 0 q 335 0 318 1 l 248 2 l 181 1 q 164 0 133 0 q 130 0 130 6 q 130 12 133 12 z"},"P":{"x_min":0,"x_max":512,"ha":512,"o":"m 13 12 q 44 12 60 17 q 75 22 82 36 q 90 51 96 81 l 177 544 q 181 561 181 577 q 181 598 168 606 q 155 613 121 613 q 118 613 118 619 q 118 625 121 625 l 163 624 q 199 622 223 622 l 271 624 q 317 628 345 628 q 423 628 472 593 q 521 558 521 490 q 521 479 517 453 q 505 390 464 347 q 424 304 372 283 q 319 262 270 262 q 245 262 229 267 q 228 267 228 270 q 228 274 230 279 q 232 284 234 283 q 247 279 264 279 q 323 279 372 318 q 422 358 435 433 q 439 453 439 476 q 439 539 406 575 q 373 611 325 611 q 295 611 282 606 q 268 602 260 588 q 253 574 247 542 l 166 81 q 162 55 162 48 q 162 27 175 20 q 188 12 223 12 q 225 12 225 6 q 225 0 223 0 q 196 0 180 1 l 116 2 l 56 1 q 40 0 13 0 q 11 0 11 6 q 11 12 13 12 z"},"|":{"x_min":0,"x_max":152,"ha":152,"o":"m 19 -160 q 11 -160 4 -158 q -3 -155 -2 -151 l 152 731 q 153 736 168 736 q 177 736 184 734 q 191 731 190 727 l 35 -154 q 34 -160 19 -160 z"},"t":{"x_min":0,"x_max":297,"ha":297,"o":"m 302 374 q 299 364 289 352 q 279 340 269 340 q 264 340 232 345 q 199 350 165 351 l 121 106 q 118 91 118 79 q 118 54 130 42 q 142 31 168 31 q 192 31 214 42 q 235 52 261 73 l 262 73 q 265 73 268 70 q 271 67 269 65 q 224 24 190 6 q 155 -12 123 -12 q 91 -12 71 4 q 51 19 51 56 q 51 62 53 80 l 95 306 q 99 323 99 337 q 99 351 91 356 q 83 360 61 360 q 58 360 58 365 q 58 368 60 371 q 61 374 62 374 q 99 374 126 396 q 154 419 166 454 q 166 457 173 457 q 177 457 180 456 q 184 454 183 453 l 169 376 q 193 377 215 378 q 237 380 255 381 q 284 384 295 384 q 299 384 301 381 q 303 378 302 374 z"},"M":{"x_min":0,"x_max":735,"ha":735,"o":"m 767 613 q 728 613 710 600 q 691 586 685 546 l 616 81 q 613 63 613 51 q 613 28 626 20 q 638 12 673 12 q 676 12 676 6 q 676 0 673 0 q 647 0 632 1 l 569 2 l 508 1 q 492 0 464 0 q 461 0 461 6 q 461 12 464 12 q 496 12 511 17 q 526 22 534 36 q 541 51 545 81 l 616 556 l 332 7 q 330 3 325 3 q 319 3 317 8 l 205 542 l 205 543 l 128 116 q 124 95 124 74 q 124 12 177 12 q 180 12 180 6 q 180 0 177 0 q 156 0 145 1 l 96 2 l 52 1 q 40 0 16 0 q 13 0 13 6 q 13 12 16 12 q 51 12 73 38 q 95 63 105 115 l 191 579 q 170 613 125 613 q 122 613 122 619 q 122 625 125 625 q 141 625 151 624 l 183 623 q 204 623 218 624 q 232 625 240 625 q 251 625 257 615 q 263 605 270 573 l 368 116 l 617 600 q 623 611 632 618 q 641 625 651 625 q 658 625 671 624 q 684 623 701 623 l 740 624 q 749 625 767 625 q 769 625 769 619 q 769 613 767 613 z"},"g":{"x_min":0,"x_max":414,"ha":414,"o":"m 385 409 q 388 409 391 408 q 394 406 393 405 l 310 -53 q 291 -163 234 -222 q 176 -281 88 -281 q 40 -281 10 -262 q -21 -242 -21 -211 q -21 -190 -9 -179 q 3 -168 18 -168 q 33 -168 40 -176 q 47 -185 55 -205 q 66 -231 80 -245 q 93 -259 125 -259 q 164 -259 194 -220 q 225 -181 244 -77 l 289 184 q 246 93 190 40 q 134 -13 81 -13 q 51 -13 34 6 q 18 24 18 62 q 18 71 20 91 q 30 160 74 232 q 117 305 176 352 q 235 399 287 399 q 329 399 355 372 q 374 388 381 407 q 383 409 385 409 z m 304 269 q 307 283 307 296 q 307 325 292 342 q 277 359 249 359 q 215 359 181 332 q 147 304 122 256 q 97 208 88 148 q 84 116 84 106 q 84 44 126 44 q 160 44 198 79 q 235 114 264 167 q 294 220 304 269 z"},"j":{"x_min":0,"x_max":242,"ha":242,"o":"m 138 556 q 138 577 150 589 q 163 601 185 601 q 207 601 220 589 q 232 577 232 556 q 232 534 220 522 q 208 509 185 509 q 163 509 150 522 q 138 534 138 556 z m -93 -227 q -90 -211 -80 -202 q -69 -194 -55 -194 q -38 -194 -32 -203 q -26 -212 -22 -230 q -18 -245 -14 -252 q -10 -258 -1 -258 q 12 -258 22 -240 q 31 -222 40 -182 q 49 -141 64 -56 l 125 297 q 128 312 128 322 q 128 353 109 353 q 85 353 43 309 q 42 308 40 308 q 37 308 35 312 q 33 315 35 317 q 70 358 98 376 q 127 395 154 395 q 174 395 183 384 q 192 372 192 347 q 192 332 187 302 l 129 -32 q 113 -127 94 -179 q 75 -231 48 -253 q 21 -275 -22 -275 q -58 -275 -77 -261 q -96 -247 -93 -227 z"},"i":{"x_min":0,"x_max":247,"ha":247,"o":"m 125 556 q 125 577 138 589 q 150 601 172 601 q 194 601 206 589 q 219 577 219 556 q 219 534 207 522 q 195 509 172 509 q 150 509 138 522 q 125 534 125 556 z m 68 40 q 68 61 74 89 l 115 297 q 118 312 118 323 q 118 353 99 353 q 88 353 71 342 q 54 330 34 309 q 33 308 31 308 q 28 308 26 312 q 23 315 26 317 q 92 395 143 395 q 163 395 172 384 q 182 372 182 348 q 182 325 177 302 l 136 89 q 133 74 133 63 q 133 34 151 34 q 174 34 214 76 q 215 77 217 77 q 221 77 223 74 q 225 70 222 68 q 189 29 162 10 q 134 -9 108 -9 q 68 -9 68 40 z"},"y":{"x_min":0,"x_max":440,"ha":440,"o":"m 413 388 q 413 383 407 360 q 398 320 397 312 l 327 -70 q 310 -168 256 -224 q 202 -281 117 -281 q 71 -281 42 -262 q 13 -243 13 -215 q 13 -208 14 -205 q 17 -186 28 -176 q 38 -167 52 -167 q 66 -167 72 -176 q 79 -184 86 -203 q 96 -231 110 -246 q 124 -260 157 -260 q 192 -260 219 -224 q 246 -188 263 -94 l 313 193 q 277 96 230 42 q 182 -13 129 -13 q 62 -13 62 63 q 62 82 69 119 l 105 297 q 108 312 108 322 q 108 352 89 352 q 79 352 64 341 q 49 330 28 309 q 26 307 24 307 q 21 307 19 310 q 17 314 20 317 q 54 357 80 376 q 106 395 132 395 q 172 395 172 346 q 172 326 166 297 l 134 138 q 128 108 128 87 q 128 32 168 32 q 198 32 230 69 q 262 106 292 178 q 321 249 341 347 l 347 380 q 348 386 357 390 q 366 394 382 394 q 401 394 407 392 q 413 391 413 388 z"},"@":{"x_min":0,"x_max":722,"ha":722,"o":"m 407 111 q 407 119 411 141 l 418 177 q 384 120 342 86 q 301 51 264 51 q 240 51 226 66 q 211 81 211 113 q 211 126 212 133 q 220 187 254 239 q 287 291 332 324 q 377 357 417 357 q 431 357 444 352 q 457 346 466 335 q 474 340 480 348 q 487 355 488 364 q 490 366 494 366 q 498 366 502 365 q 505 364 506 363 l 465 139 q 462 124 462 111 q 462 93 470 84 q 479 74 499 74 q 525 74 552 93 q 578 112 596 149 q 614 186 614 236 q 614 301 582 355 q 549 409 492 441 q 436 473 367 473 q 290 473 234 436 q 177 400 148 338 q 119 275 119 199 q 119 119 154 58 q 188 -2 250 -35 q 313 -68 395 -68 q 441 -68 478 -58 q 516 -47 561 -20 l 562 -20 q 565 -20 567 -24 q 569 -27 567 -28 q 478 -100 361 -100 q 279 -100 213 -68 q 147 -35 108 28 q 70 90 70 175 q 70 268 116 342 q 161 415 237 456 q 313 496 399 496 q 476 496 534 464 q 593 433 624 380 q 656 328 656 266 q 656 210 630 161 q 604 112 560 82 q 517 53 466 53 q 437 53 422 68 q 407 83 407 111 z m 435 272 q 437 284 437 289 q 437 309 428 322 q 419 334 401 334 q 376 334 350 312 q 323 289 303 252 q 283 214 276 172 q 272 146 272 137 q 272 98 299 98 q 322 98 350 124 q 379 150 402 190 q 426 231 435 272 z"},".":{"x_min":0,"x_max":200,"ha":200,"o":"m 24 38 q 24 58 36 70 q 49 82 71 82 q 93 82 105 70 q 117 59 117 38 q 117 15 105 2 q 93 -10 71 -10 q 49 -10 36 3 q 24 16 24 38 z"},"p":{"x_min":0,"x_max":406,"ha":406,"o":"m 385 289 q 385 273 382 253 q 373 186 336 128 q 300 69 249 34 q 198 -1 145 -1 q 114 -1 93 2 l 61 -178 q 58 -195 58 -206 q 58 -223 66 -230 q 74 -238 91 -238 q 97 -238 115 -236 q 119 -235 120 -240 q 122 -246 118 -247 l -60 -275 q -64 -276 -65 -270 q -66 -264 -62 -263 q -40 -259 -30 -252 q -20 -246 -15 -232 q -10 -218 -4 -185 l 81 291 q 75 287 35 257 l 33 256 q 29 256 27 260 q 25 265 28 267 q 55 291 85 312 l 98 386 q 98 388 115 400 q 132 413 146 428 q 159 443 163 461 q 164 465 170 464 q 175 463 174 459 l 156 356 q 225 393 285 393 q 334 393 360 366 q 385 340 385 289 z m 317 255 q 317 353 234 353 q 195 353 152 333 l 100 44 q 137 28 176 28 q 235 28 270 80 q 304 132 315 220 q 317 244 317 255 z"},"X":{"x_min":0,"x_max":579,"ha":579,"o":"m 620 613 q 558 613 478 513 l 343 343 l 443 83 q 457 44 477 28 q 497 12 531 12 q 535 12 535 6 q 535 0 531 0 q 508 0 494 1 l 444 2 l 372 1 q 354 0 326 0 q 322 0 322 6 q 322 12 326 12 q 376 12 376 37 q 376 44 373 51 l 285 281 l 141 97 q 113 62 113 40 q 113 12 163 12 q 167 12 167 6 q 167 0 163 0 q 135 0 119 1 l 53 2 l 16 1 q 5 0 -19 0 q -23 0 -23 6 q -23 12 -19 12 q 11 12 48 36 q 84 59 121 106 l 276 302 l 184 542 q 170 580 152 596 q 134 613 106 613 q 102 613 102 619 q 102 625 106 625 l 140 624 q 162 622 173 622 q 204 622 248 624 l 294 625 q 298 625 298 619 q 298 613 294 613 q 250 613 250 589 q 250 581 254 573 l 334 364 l 458 523 q 488 562 488 584 q 488 613 439 613 q 435 613 435 619 q 435 625 439 625 l 482 624 q 524 622 550 622 q 565 622 587 624 l 620 625 q 625 625 625 619 q 625 613 620 613 z"},"*":{"x_min":0,"x_max":448,"ha":448,"o":"m 253 659 q 252 670 283 680 q 314 690 335 690 q 345 690 343 687 l 276 529 q 275 526 270 526 q 266 526 265 529 z m 117 539 q 107 542 107 577 q 107 598 110 618 q 114 637 118 633 l 247 521 q 248 520 248 518 q 248 515 246 512 q 245 510 243 511 z m 291 503 q 289 503 288 508 q 286 512 288 513 l 407 564 q 415 568 430 549 q 446 530 456 509 q 467 488 461 488 z m 176 369 q 164 369 144 376 q 124 384 110 392 q 95 401 99 404 l 245 491 q 246 492 248 492 q 250 492 252 489 q 255 486 254 485 l 188 374 q 185 369 176 369 z m 273 481 l 273 482 q 273 484 276 486 q 280 489 281 488 l 367 390 q 373 383 360 363 q 347 343 330 326 q 312 309 311 315 z"},"Y":{"x_min":0,"x_max":531,"ha":531,"o":"m 602 613 q 538 613 469 514 l 326 311 l 285 81 q 281 62 281 47 q 281 26 295 19 q 309 12 347 12 q 350 12 350 6 q 350 0 347 0 q 318 0 302 1 l 238 2 l 171 1 q 155 0 127 0 q 123 0 123 6 q 123 12 127 12 q 160 12 176 18 q 193 23 201 37 q 209 51 214 81 l 252 301 l 150 542 q 133 580 116 596 q 99 613 73 613 q 69 613 69 619 q 69 625 73 625 l 111 624 q 139 622 151 622 q 177 622 221 624 l 266 625 q 269 625 269 620 q 269 613 265 613 q 239 613 227 608 q 215 603 215 592 q 215 585 220 573 l 320 334 l 449 525 q 472 557 472 581 q 472 613 429 613 q 426 613 426 619 q 426 625 429 625 l 473 624 q 511 622 535 622 q 550 622 570 624 l 602 625 q 605 625 605 619 q 605 613 602 613 z"},"c":{"x_min":0,"x_max":346,"ha":346,"o":"m 27 144 q 27 174 33 202 q 44 261 78 306 q 113 351 159 375 q 205 399 250 399 q 286 399 312 384 q 339 368 339 342 q 339 325 329 313 q 319 301 300 301 q 269 301 260 337 q 249 375 212 375 q 170 375 143 336 q 116 298 105 234 q 98 194 98 168 q 98 104 125 65 q 152 26 206 26 q 255 26 306 67 l 308 68 q 311 68 314 64 q 316 60 314 58 q 237 -13 158 -13 q 92 -13 60 32 q 27 77 27 144 z"},"!":{"x_min":0,"x_max":219,"ha":219,"o":"m 102 192 q 133 483 136 621 q 136 625 152 629 q 169 633 186 633 q 204 633 220 629 q 236 625 234 621 q 179 469 113 191 q 112 186 106 186 q 101 187 102 192 z m 36 38 q 36 58 48 70 q 61 82 83 82 q 105 82 117 70 q 129 59 129 38 q 129 15 117 2 q 105 -10 83 -10 q 61 -10 48 3 q 36 16 36 38 z"},"/":{"x_min":0,"x_max":305,"ha":305,"o":"m -44 -155 l 340 732 q 342 736 352 734 q 361 732 368 727 q 376 722 374 718 l -8 -168 q -10 -171 -20 -169 q -29 -167 -37 -162 q -45 -158 -44 -155 z"},"[":{"x_min":0,"x_max":250,"ha":250,"o":"m 21 -106 l 166 715 q 167 722 168 724 q 170 725 175 725 l 311 725 q 315 725 315 719 q 315 713 311 713 q 276 713 258 707 q 240 701 232 686 q 223 672 218 642 l 99 -34 q 95 -58 95 -65 q 95 -88 110 -96 q 126 -105 165 -105 q 170 -105 170 -111 q 170 -117 165 -117 l 26 -117 q 21 -117 20 -115 q 19 -113 21 -106 z"},"6":{"x_min":0,"x_max":452,"ha":452,"o":"m 51 153 q 51 190 58 226 q 76 324 128 414 q 181 504 260 564 q 338 625 429 636 q 433 636 434 631 q 435 626 431 625 q 354 604 292 546 q 230 488 190 408 q 150 329 136 243 q 129 205 129 159 q 129 93 150 50 q 172 8 219 8 q 303 8 326 130 q 332 165 332 197 q 332 249 314 280 q 297 311 260 311 q 223 311 190 275 l 188 274 q 185 274 182 278 q 179 281 180 282 q 199 309 230 324 q 261 340 293 340 q 353 340 382 302 q 410 265 410 206 q 410 180 406 159 q 390 79 332 33 q 273 -13 198 -13 q 124 -13 88 32 q 51 76 51 153 z"},"r":{"x_min":0,"x_max":345,"ha":345,"o":"m 351 345 q 351 330 340 318 q 330 307 314 307 q 303 307 296 312 q 289 316 281 325 q 276 330 270 334 q 265 339 258 339 q 238 339 210 282 q 181 226 156 148 q 130 69 118 9 q 116 1 106 -4 q 96 -8 79 -8 q 53 -8 53 -1 q 54 5 60 30 q 65 55 68 74 l 104 271 q 108 294 108 313 q 108 353 86 353 q 65 353 27 315 q 26 314 24 314 q 21 314 19 318 q 17 321 19 323 q 51 360 78 378 q 105 395 131 395 q 152 395 162 382 q 172 369 172 338 q 172 314 166 276 l 145 159 q 177 262 216 328 q 254 395 292 395 q 313 395 332 380 q 351 365 351 345 z"},"2":{"x_min":0,"x_max":402,"ha":402,"o":"m -5 22 l 26 56 q 119 156 172 218 q 224 279 262 342 q 301 406 311 466 q 314 486 314 501 q 314 544 292 566 q 271 587 232 587 q 187 587 152 560 q 117 532 96 484 q 95 482 92 482 q 89 482 86 484 q 84 486 85 489 q 110 558 160 597 q 210 636 272 636 q 329 636 359 604 q 389 571 389 517 q 389 500 386 482 q 371 403 310 325 q 250 247 153 153 q 140 140 114 114 q 88 87 74 70 q 71 67 72 66 q 73 66 77 66 q 183 66 232 70 q 282 75 304 90 q 325 104 331 136 q 331 140 336 140 q 339 140 342 138 q 344 136 343 134 l 320 8 q 319 5 316 2 q 314 0 310 0 l 2 0 q -3 0 -6 8 q -8 17 -5 22 z"},"{":{"x_min":0,"x_max":261,"ha":261,"o":"m 64 -33 q 64 2 77 80 q 93 171 93 208 q 93 247 80 269 q 67 291 39 298 q 36 298 36 304 q 36 311 39 311 q 88 318 113 370 q 138 421 157 529 q 172 615 190 656 q 208 696 238 710 q 267 725 322 725 q 325 725 325 719 q 325 713 322 713 q 257 713 238 607 q 215 488 200 437 q 184 386 158 358 q 132 329 78 305 q 122 285 140 261 q 157 237 157 194 q 157 169 151 125 q 145 81 136 30 l 131 1 q 128 -19 128 -35 q 128 -69 140 -87 q 153 -105 176 -105 q 178 -105 178 -111 q 178 -117 176 -117 q 133 -117 110 -110 q 86 -103 75 -85 q 64 -67 64 -33 z"},"9":{"x_min":0,"x_max":452,"ha":452,"o":"m 64 -1 q 181 31 258 136 q 334 240 358 380 q 365 427 365 462 q 365 530 343 574 q 321 617 273 617 q 233 617 207 585 q 181 553 169 494 q 162 450 162 424 q 162 373 180 343 q 198 313 235 313 q 271 313 305 348 q 306 349 308 349 q 310 349 312 346 q 315 343 314 341 q 294 313 264 298 q 234 283 199 283 q 139 283 112 320 q 84 358 84 417 q 84 443 88 464 q 105 544 164 590 q 222 636 299 636 q 371 636 407 593 q 443 550 443 473 q 443 436 436 398 q 417 293 365 204 q 313 114 236 56 q 158 -1 65 -13 q 61 -13 60 -8 q 60 -2 64 -1 z"}," ":{"x_min":0,"x_max":234,"ha":234,"o":""},"I":{"x_min":0,"x_max":317,"ha":317,"o":"m 22 12 q 53 12 68 17 q 82 22 90 36 q 97 50 102 81 l 184 544 q 188 570 188 576 q 188 598 174 606 q 161 613 127 613 q 124 613 124 619 q 124 625 127 625 l 170 624 q 208 622 230 622 q 259 622 297 624 l 337 625 q 340 625 340 619 q 340 613 337 613 q 307 613 292 607 q 277 601 270 586 q 262 572 256 542 l 174 81 q 170 55 170 49 q 170 27 184 20 q 197 12 232 12 q 234 12 234 6 q 234 0 232 0 q 206 0 190 1 l 126 2 l 66 1 q 50 0 22 0 q 19 0 19 6 q 19 12 22 12 z"},"H":{"x_min":0,"x_max":672,"ha":672,"o":"m 700 613 q 670 613 655 608 q 640 602 632 588 q 625 574 619 544 l 537 81 q 534 62 534 50 q 534 27 547 20 q 560 12 595 12 q 598 12 598 6 q 598 0 595 0 q 569 0 554 1 l 492 2 l 430 1 q 414 0 385 0 q 383 0 383 6 q 383 12 385 12 q 417 12 432 17 q 447 22 454 36 q 462 50 467 81 l 508 314 l 205 314 l 164 81 q 160 55 160 48 q 160 27 173 20 q 186 12 221 12 q 224 12 224 6 q 224 0 221 0 q 194 0 178 1 l 114 2 l 54 1 q 39 0 12 0 q 9 0 9 6 q 9 12 12 12 q 43 12 58 17 q 73 22 81 36 q 89 51 94 81 l 176 544 q 180 570 180 576 q 180 598 167 606 q 154 613 119 613 q 117 613 117 619 q 117 625 119 625 l 162 624 q 198 622 221 622 q 244 622 284 624 l 328 625 q 330 625 330 619 q 330 613 328 613 q 298 613 282 607 q 267 601 260 586 q 252 572 246 542 l 210 337 l 512 337 l 548 542 q 552 568 552 576 q 552 598 539 606 q 526 613 492 613 q 489 613 489 619 q 489 625 492 625 l 535 624 q 573 622 596 622 q 618 622 658 624 l 700 625 q 703 625 703 619 q 703 613 700 613 z"},"4":{"x_min":0,"x_max":428,"ha":428,"o":"m 388 222 q 388 210 385 194 q 382 177 379 177 l 305 180 l 288 81 q 284 57 284 50 q 284 28 296 20 q 309 12 340 12 q 345 12 345 6 q 345 0 340 0 q 316 0 301 1 l 243 2 l 173 1 q 155 0 124 0 q 120 0 120 6 q 120 12 124 12 q 164 12 182 16 q 200 21 208 34 q 216 48 222 81 l 240 182 q 120 184 17 184 q 12 184 10 188 q 9 191 13 195 l 371 630 q 373 632 376 632 q 379 632 382 630 q 384 629 383 626 l 314 227 l 386 230 q 388 230 388 222 z m 247 226 l 297 511 l 71 232 q 64 224 74 224 q 145 224 247 226 z"},"~":{"x_min":0,"x_max":443,"ha":443,"o":"m 49 149 q 47 149 44 152 q 42 154 43 156 q 73 195 99 215 q 125 235 156 235 q 180 235 233 218 q 262 209 280 204 q 299 200 316 200 q 344 200 361 210 q 378 220 394 238 l 395 238 q 398 238 400 236 q 403 233 401 231 q 365 185 342 168 q 318 152 289 152 q 261 152 210 169 q 183 178 164 182 q 144 187 125 187 q 98 187 85 179 q 72 171 50 149 z"},"D":{"x_min":0,"x_max":620,"ha":620,"o":"m 185 -1 q 173 0 156 1 q 138 2 116 2 l 54 1 q 39 0 12 0 q 9 0 9 6 q 9 12 12 12 q 43 12 58 17 q 73 22 81 36 q 89 51 94 81 l 176 544 q 180 561 180 576 q 180 598 167 606 q 154 613 119 613 q 117 613 117 619 q 117 625 119 625 l 163 624 q 201 622 225 622 q 254 622 286 625 q 324 627 339 627 q 420 627 480 596 q 541 565 574 510 q 606 454 606 382 q 606 348 601 323 q 584 227 529 152 q 474 78 398 37 q 321 -4 241 -4 q 217 -4 185 -1 z m 516 301 q 523 339 523 380 q 523 482 476 546 q 429 611 338 611 q 292 611 272 597 q 253 583 246 542 l 167 92 q 164 76 164 62 q 164 36 180 24 q 196 12 236 12 q 303 12 361 46 q 419 80 460 145 q 500 210 516 301 z"},"^":{"x_min":0,"x_max":353,"ha":353,"o":"m 93 374 q 90 374 87 376 q 84 378 85 380 l 243 629 q 246 634 254 634 q 263 634 263 629 l 333 380 q 333 378 328 376 q 324 374 323 377 l 235 525 l 96 375 q 95 374 93 374 z"},"0":{"x_min":0,"x_max":467,"ha":467,"o":"m 55 204 q 55 257 65 313 q 82 407 119 480 q 156 554 207 596 q 258 637 314 637 q 381 637 418 578 q 455 520 455 421 q 455 373 444 310 q 427 215 390 142 q 354 69 304 28 q 253 -13 197 -13 q 130 -13 92 46 q 55 104 55 204 z m 363 298 q 379 390 379 459 q 379 538 358 580 q 338 622 302 622 q 250 622 208 538 q 167 455 144 320 q 130 236 130 171 q 130 92 150 48 q 170 3 211 3 q 264 3 302 80 q 340 158 363 298 z"},"F":{"x_min":0,"x_max":484,"ha":484,"o":"m 513 616 l 501 535 l 494 489 q 493 485 487 486 q 481 487 482 490 q 485 543 460 576 q 435 608 389 608 l 327 608 q 296 608 282 603 q 267 598 260 585 q 253 572 248 543 l 209 325 l 327 325 q 368 325 389 342 q 410 358 417 397 q 418 401 424 400 q 430 400 429 396 q 425 372 413 313 l 398 217 q 397 213 391 214 q 385 214 386 218 q 388 228 388 244 q 388 275 372 288 q 355 302 320 302 l 205 302 l 167 85 q 164 69 164 56 q 164 30 184 21 q 203 12 259 12 q 261 12 261 6 q 261 0 259 0 q 231 0 213 1 l 116 2 l 56 1 q 41 0 14 0 q 11 0 11 6 q 11 12 14 12 q 45 12 60 17 q 75 22 82 36 q 90 51 96 81 l 177 544 q 181 561 181 577 q 181 598 168 606 q 155 613 121 613 q 118 613 118 619 q 118 625 121 625 l 508 625 q 516 625 513 616 z"},"`":{"x_min":0,"x_max":166,"ha":166,"o":"m 124 727 q 123 732 137 732 q 153 732 172 726 q 192 721 192 716 l 181 476 q 181 474 176 473 q 172 472 172 475 z"},"k":{"x_min":0,"x_max":415,"ha":415,"o":"m 410 76 q 414 76 416 72 q 418 69 416 67 q 349 -9 310 -9 q 286 -9 268 6 q 250 20 228 58 l 170 157 q 161 173 154 178 q 146 183 133 182 l 101 9 q 99 1 89 -4 q 79 -8 62 -8 q 35 -8 35 -1 l 39 19 q 48 62 50 74 l 150 610 q 152 619 152 633 q 152 661 131 661 q 115 661 85 646 l 84 646 q 80 646 78 651 q 76 656 80 658 l 218 725 l 220 725 q 224 725 227 722 q 230 719 229 717 l 156 315 q 193 354 238 376 q 283 399 327 399 q 359 399 372 384 q 386 369 386 350 q 386 311 340 274 q 295 236 216 207 l 281 95 q 301 62 315 50 q 329 39 345 39 q 371 39 407 75 q 408 76 410 76 z m 137 207 l 135 198 q 221 218 260 246 q 298 273 305 318 q 306 322 306 329 q 306 346 298 356 q 290 365 276 365 q 229 365 191 322 q 153 279 137 207 z"},"u":{"x_min":0,"x_max":468,"ha":468,"o":"m 442 78 q 445 78 447 74 q 449 71 447 69 q 412 28 384 10 q 356 -9 329 -9 q 309 -9 300 2 q 291 13 291 38 q 291 54 296 84 l 316 198 q 280 98 232 42 q 183 -13 130 -13 q 63 -13 63 63 q 63 82 70 119 l 106 297 q 109 312 109 322 q 109 352 90 352 q 80 352 66 341 q 51 330 29 309 q 27 307 25 307 q 22 307 20 310 q 18 314 21 317 q 56 357 82 376 q 108 395 134 395 q 173 395 173 346 q 173 327 167 297 l 135 138 q 129 108 129 87 q 129 32 169 32 q 201 32 235 73 q 269 114 298 192 q 328 270 347 377 q 349 385 359 390 q 369 394 387 394 q 413 394 413 387 l 409 367 q 400 324 398 312 l 357 89 q 355 80 355 64 q 355 33 373 33 q 385 33 402 44 q 419 56 439 77 q 440 78 442 78 z"},"]":{"x_min":0,"x_max":249,"ha":249,"o":"m 268 714 l 123 -107 q 122 -114 120 -116 q 119 -117 114 -117 l -22 -117 q -26 -117 -26 -111 q -26 -105 -22 -105 q 13 -105 31 -99 q 49 -93 58 -78 q 66 -64 71 -34 l 190 642 q 194 666 194 673 q 194 696 178 704 q 163 713 124 713 q 120 713 120 719 q 120 725 124 725 l 263 725 q 268 725 269 723 q 270 721 268 714 z"},"U":{"x_min":0,"x_max":703,"ha":703,"o":"m 725 613 q 695 613 680 608 q 665 602 657 588 q 649 574 644 544 l 562 81 q 558 57 558 50 q 558 27 574 20 q 589 12 631 12 q 635 12 635 6 q 635 0 631 0 l 548 1 l 493 0 q 485 0 482 2 q 480 3 480 9 l 481 19 l 491 79 q 434 31 384 10 q 335 -12 281 -12 q 198 -12 148 30 q 99 73 99 147 q 99 165 102 186 l 165 544 q 169 561 169 576 q 169 598 156 606 q 143 613 108 613 q 106 613 106 619 q 106 625 108 625 l 150 624 q 188 622 211 622 q 235 622 273 624 l 317 625 q 319 625 319 619 q 319 613 317 613 q 286 613 271 607 q 256 601 248 586 q 241 572 236 542 l 179 221 q 173 190 173 162 q 173 92 210 55 q 246 18 313 18 q 357 18 400 38 q 442 57 495 102 l 572 542 q 576 561 576 576 q 576 598 563 606 q 550 613 516 613 q 514 613 514 619 q 514 625 516 625 l 559 624 q 597 622 620 622 q 643 622 681 624 l 725 625 q 727 625 727 619 q 727 613 725 613 z"},"o":{"x_min":0,"x_max":401,"ha":401,"o":"m 26 139 q 26 161 31 193 q 42 252 74 299 q 105 346 150 372 q 195 399 245 399 q 309 399 344 358 q 378 316 378 248 q 378 222 372 193 q 359 130 326 83 q 292 36 247 11 q 202 -14 155 -14 q 93 -14 60 28 q 26 71 26 139 z m 302 149 q 308 181 308 212 q 308 280 284 328 q 259 375 214 375 q 176 375 145 338 q 114 301 102 236 q 95 198 95 169 q 95 102 120 56 q 146 11 190 11 q 229 11 260 48 q 290 85 302 149 z"},"N":{"x_min":0,"x_max":652,"ha":652,"o":"m 694 613 q 619 613 603 515 l 509 -9 q 509 -11 506 -12 q 503 -14 499 -14 q 491 -14 490 -10 l 197 543 l 122 109 q 118 83 118 74 q 118 12 177 12 q 179 12 179 6 q 179 0 177 0 q 155 0 142 1 l 93 2 l 45 1 q 32 0 7 0 q 5 0 5 6 q 5 12 7 12 q 82 12 98 109 l 180 571 q 164 594 148 604 q 132 613 114 613 q 111 613 111 619 q 111 625 114 625 l 153 624 q 165 623 186 623 q 205 623 218 624 q 231 625 237 625 q 243 625 246 622 q 249 618 253 606 q 260 586 267 573 l 508 116 l 579 515 q 583 541 583 551 q 583 613 524 613 q 522 613 522 619 q 522 625 524 625 l 558 624 q 588 622 609 622 q 625 622 655 624 l 694 625 q 696 625 696 619 q 696 613 694 613 z"},"+":{"x_min":0,"x_max":398,"ha":398,"o":"m 369 190 q 369 182 368 176 q 366 169 364 169 l 220 169 l 220 25 q 220 23 212 22 q 204 20 196 20 q 178 20 178 23 l 178 169 l 34 169 q 32 169 30 176 q 29 183 29 191 q 29 198 30 204 q 31 210 33 210 l 178 210 l 178 354 q 178 356 184 358 q 191 359 199 359 q 207 359 214 358 q 220 356 220 354 l 220 210 l 364 210 q 366 210 368 204 q 369 197 369 190 z"},"G":{"x_min":0,"x_max":631,"ha":631,"o":"m 59 242 q 59 278 66 313 q 83 406 140 480 q 197 554 280 595 q 364 636 458 636 q 500 636 539 627 q 578 618 600 602 q 607 597 607 590 l 606 579 l 595 461 q 594 457 589 457 q 584 457 583 461 q 574 534 532 574 q 489 613 418 613 q 313 613 242 542 q 172 471 151 349 q 144 307 144 264 q 144 146 202 76 q 259 7 358 7 q 398 7 422 16 q 445 26 458 52 q 472 77 479 126 q 485 164 485 185 q 485 206 477 216 q 469 226 451 230 q 433 233 397 233 q 395 233 394 236 q 392 238 392 241 q 392 244 394 246 q 395 249 397 249 q 465 244 510 244 q 552 244 599 247 q 603 247 603 240 q 603 233 599 233 q 581 234 572 226 q 564 219 558 197 q 553 175 544 116 q 537 72 536 54 q 536 36 535 28 q 534 22 532 20 q 530 19 523 16 q 413 -12 330 -12 q 244 -12 183 20 q 122 52 90 110 q 59 167 59 242 z"},"q":{"x_min":0,"x_max":417,"ha":417,"o":"m 289 -178 q 286 -193 286 -204 q 286 -223 296 -232 q 305 -241 327 -241 q 333 -241 349 -239 l 350 -239 q 353 -239 354 -244 q 355 -249 351 -250 l 165 -275 q 161 -276 160 -270 q 159 -264 163 -263 q 187 -259 198 -253 q 208 -247 214 -232 q 220 -218 226 -185 l 284 144 q 247 70 196 28 q 146 -13 98 -13 q 63 -13 42 12 q 21 36 21 78 q 21 85 23 103 q 33 180 72 248 q 112 317 170 358 q 227 399 289 399 q 308 399 326 392 q 344 386 356 372 q 373 386 383 407 q 385 409 387 409 q 390 409 393 408 q 396 406 395 405 z m 302 246 q 306 266 306 287 q 306 359 247 359 q 189 359 146 308 q 103 257 90 156 q 89 146 89 126 q 89 44 139 44 q 176 44 210 72 q 244 99 268 146 q 292 192 302 246 z"},"d":{"x_min":0,"x_max":446,"ha":446,"o":"m 346 89 q 343 74 343 63 q 343 34 361 34 q 371 34 386 45 q 401 56 423 77 q 425 79 427 79 q 430 79 432 76 q 434 72 431 69 q 396 29 370 10 q 344 -9 318 -9 q 298 -9 288 2 q 279 14 279 39 q 279 59 285 89 l 302 178 q 258 89 208 38 q 158 -13 106 -13 q 70 -13 46 10 q 22 34 22 84 q 22 106 26 126 q 39 197 81 260 q 123 323 181 361 q 239 399 295 399 q 322 399 341 388 l 382 610 q 384 619 384 633 q 384 661 363 661 q 348 661 316 646 l 315 646 q 311 646 310 652 q 308 657 312 658 l 450 725 l 452 725 q 456 725 459 722 q 462 719 461 717 z m 321 293 q 321 325 303 342 q 285 359 255 359 q 194 359 150 310 q 106 262 91 171 q 87 148 87 125 q 87 84 102 63 q 117 42 144 42 q 187 42 228 88 q 269 135 295 196 q 321 258 321 293 z"},"1":{"x_min":0,"x_max":352,"ha":352,"o":"m 23 12 q 63 12 85 18 q 107 24 118 39 q 130 54 136 83 l 205 476 q 208 493 208 504 q 208 532 189 532 q 177 532 158 522 q 140 512 108 491 l 106 490 q 102 490 100 494 q 98 499 101 501 l 286 633 q 289 635 291 635 q 294 635 296 632 q 298 630 297 626 l 201 79 q 198 64 198 52 q 198 27 216 20 q 235 12 287 12 q 289 12 289 6 q 289 0 287 0 q 251 0 231 1 l 155 2 l 77 1 q 57 0 23 0 q 20 0 20 6 q 20 12 23 12 z"},"5":{"x_min":0,"x_max":410,"ha":410,"o":"m 428 656 q 431 656 433 654 q 435 653 434 651 l 410 580 q 406 569 400 566 q 394 563 382 563 l 191 568 q 181 568 175 554 l 129 383 q 187 398 226 398 q 296 398 335 361 q 374 324 374 254 q 374 224 369 200 q 356 133 324 85 q 291 37 246 12 q 200 -12 149 -12 q 107 -12 76 8 q 46 27 24 65 l 24 66 q 24 70 28 72 q 33 75 35 71 q 51 44 78 30 q 105 17 137 17 q 197 17 234 64 q 271 110 286 188 q 291 215 291 235 q 291 295 260 331 q 229 367 172 367 q 131 367 104 357 q 99 357 97 360 q 95 364 97 368 l 169 613 q 171 620 174 622 q 176 625 182 625 q 307 625 348 626 q 389 628 402 634 q 416 639 424 655 q 425 656 428 656 z"}}}
